<svg width="1367" height="320" viewBox="0 0 1367 320" fill="none" xmlns="http://www.w3.org/2000/svg">
<mask id="mask0_637_573" style="mask-type:luminance" maskUnits="userSpaceOnUse" x="-267" y="-267" width="1900" height="854">
<path d="M-267 -267H1633V586.333H-267V-267Z" fill="white"/>
</mask>
<g mask="url(#mask0_637_573)">
<path d="M319.666 159.667C319.666 248.032 248.031 319.667 159.666 319.667C71.3007 319.667 -0.333984 248.032 -0.333984 159.667C-0.333984 71.3012 71.3007 -0.333496 159.666 -0.333496C248.031 -0.333496 319.666 71.3012 319.666 159.667Z" fill="#FF6154"/>
<path d="M180.999 159.666L135.666 159.667V111.667H180.999C194.254 111.667 204.999 122.411 204.999 135.666C204.999 148.921 194.254 159.666 180.999 159.666ZM180.999 79.666H103.666V239.666H135.666V191.667H180.999C211.927 191.667 236.999 166.594 236.999 135.666C236.999 104.738 211.927 79.666 180.999 79.666Z" fill="white"/>
<path d="M487.756 140.109C487.756 131.309 480.989 125.967 472.201 125.967H448.64V154.09H472.201C480.989 154.09 487.756 148.749 487.756 140.109ZM426.332 212.999V106.333H475.336C498.117 106.333 510.524 121.727 510.524 140.109C510.524 158.33 497.964 173.725 475.336 173.725H448.64V212.999H426.332Z" fill="black"/>
<path d="M524.096 213V135.234H544.037V145.449C549.537 138.849 558.812 133.354 568.238 133.354V152.829C566.818 152.516 565.092 152.362 562.738 152.362C556.138 152.362 547.337 156.129 544.037 161.004V213H524.096Z" fill="black"/>
<path d="M635.343 173.097C635.343 161.316 628.423 151.103 615.861 151.103C603.441 151.103 596.533 161.316 596.533 173.097C596.533 185.039 603.441 195.245 615.861 195.245C628.423 195.245 635.343 185.039 635.343 173.097ZM575.799 173.097C575.799 151.576 590.88 133.355 615.861 133.355C640.996 133.355 656.077 151.576 656.077 173.097C656.077 194.619 640.996 213 615.861 213C590.88 213 575.799 194.619 575.799 173.097Z" fill="black"/>
<path d="M723.206 186.605V159.744C719.906 154.716 712.679 151.102 706.078 151.102C694.618 151.102 686.763 160.057 686.763 173.097C686.763 186.292 694.618 195.245 706.078 195.245C712.679 195.245 719.906 191.632 723.206 186.605ZM723.206 213V201.373C717.232 208.913 709.071 213 699.798 213C680.79 213 666.182 198.546 666.182 173.097C666.182 148.436 680.483 133.354 699.798 133.354C708.751 133.354 717.232 137.122 723.206 144.976V106.333H743.314V213H723.206Z" fill="black"/>
<path d="M814.37 213V201.532C809.19 207.186 800.082 213 787.674 213C771.021 213 763.166 203.886 763.166 189.118V135.234H783.109V181.265C783.109 191.792 788.609 195.245 797.089 195.245C804.789 195.245 810.917 191.005 814.37 186.605V135.234H834.325V213H814.37Z" fill="black"/>
<path d="M849.303 173.097C849.303 149.849 866.264 133.355 889.519 133.355C905.073 133.355 914.5 140.108 919.527 147.023L906.48 159.269C902.872 153.929 897.372 151.103 890.465 151.103C878.364 151.103 869.884 159.903 869.884 173.097C869.884 186.292 878.364 195.245 890.465 195.245C897.372 195.245 902.872 192.105 906.48 186.919L919.527 199.172C914.5 206.087 905.073 213 889.519 213C866.264 213 849.303 196.505 849.303 173.097Z" fill="black"/>
<path d="M936.68 192.105V152.676H924.119V135.235H936.68V114.5H956.635V135.235H972.023V152.676H956.635V186.765C956.635 191.632 959.142 195.245 963.542 195.245C966.523 195.245 969.362 194.145 970.45 192.892L974.696 208.127C971.716 210.8 966.368 213 958.042 213C944.06 213 936.68 205.773 936.68 192.105Z" fill="black"/>
<path d="M1099.81 213V166.97H1050.33V213H1028.03V106.333H1050.33V147.489H1099.81V106.333H1122.28V213H1099.81Z" fill="black"/>
<path d="M1193.66 213V201.532C1188.48 207.186 1179.37 213 1166.97 213C1150.31 213 1142.46 203.886 1142.46 189.118V135.234H1162.4V181.265C1162.4 191.792 1167.9 195.245 1176.38 195.245C1184.08 195.245 1190.21 191.005 1193.66 186.605V135.234H1213.62V213H1193.66Z" fill="black"/>
<path d="M1284.66 213V165.244C1284.66 154.716 1279.17 151.102 1270.68 151.102C1262.83 151.102 1256.87 155.502 1253.4 159.902V213H1233.46V135.234H1253.4V144.976C1258.27 139.322 1267.7 133.354 1279.95 133.354C1296.76 133.354 1304.77 142.776 1304.77 157.542V213H1284.66Z" fill="black"/>
<path d="M1328.55 192.105V152.676H1315.99V135.235H1328.55V114.5H1348.5V135.235H1363.89V152.676H1348.5V186.765C1348.5 191.632 1351.01 195.245 1355.41 195.245C1358.39 195.245 1361.23 194.145 1362.33 192.892L1366.56 208.127C1363.58 210.8 1358.24 213 1349.91 213C1335.93 213 1328.55 205.773 1328.55 192.105Z" fill="black"/>
</g>
</svg>
